<svg xmlns="http://www.w3.org/2000/svg" version="1.1" xmlns:xlink="http://www.w3.org/1999/xlink" xmlns:svgjs="http://svgjs.dev/svgjs" width="1440" height="560" preserveAspectRatio="none" viewBox="0 0 1440 560"><g mask="url(&quot;#SvgjsMask1006&quot;)" fill="none"><rect width="1440" height="560" x="0" y="0" fill="rgba(233, 246, 255, 1)"></rect><path d="M-41.95 382.18L-41.95 382.18" stroke="#132e65" stroke-width="1.5"></path><path d="M-41.95 382.18L93.86 367.68" stroke="#132e65" stroke-width="1.5"></path><path d="M-41.95 382.18L-42.45 547.89" stroke="#132e65" stroke-width="1.5"></path><path d="M-41.95 382.18L100.81 496.03" stroke="#132e65" stroke-width="1.5"></path><path d="M-42.45 547.89L-42.45 547.89" stroke="#132e65" stroke-width="1.5"></path><path d="M-42.45 547.89L68.33 641.05" stroke="#132e65" stroke-width="1.5"></path><path d="M-42.45 547.89L100.81 496.03" stroke="#132e65" stroke-width="1.5"></path><path d="M-42.45 547.89L-54.73 704.15" stroke="#132e65" stroke-width="1.5"></path><path d="M-54.73 704.15L-54.73 704.15" stroke="#132e65" stroke-width="1.5"></path><path d="M-54.73 704.15L68.33 641.05" stroke="#132e65" stroke-width="1.5"></path><path d="M-54.73 704.15L100.81 496.03" stroke="#132e65" stroke-width="1.5"></path><path d="M-54.73 704.15L233.31 707.11" stroke="#132e65" stroke-width="1.5"></path><path d="M93.86 367.68L93.86 367.68" stroke="#132e65" stroke-width="1.5"></path><path d="M93.86 367.68L100.81 496.03" stroke="#132e65" stroke-width="1.5"></path><path d="M100.81 496.03L100.81 496.03" stroke="#132e65" stroke-width="1.5"></path><path d="M100.81 496.03L192.67 518.08" stroke="#132e65" stroke-width="1.5"></path><path d="M100.81 496.03L68.33 641.05" stroke="#132e65" stroke-width="1.5"></path><path d="M68.33 641.05L68.33 641.05" stroke="#132e65" stroke-width="1.5"></path><path d="M231.35 342.95L231.35 342.95" stroke="#132e65" stroke-width="1.5"></path><path d="M231.35 342.95L350.26 368.78" stroke="#132e65" stroke-width="1.5"></path><path d="M231.35 342.95L93.86 367.68" stroke="#132e65" stroke-width="1.5"></path><path d="M192.67 518.08L192.67 518.08" stroke="#132e65" stroke-width="1.5"></path><path d="M192.67 518.08L68.33 641.05" stroke="#132e65" stroke-width="1.5"></path><path d="M192.67 518.08L231.35 342.95" stroke="#132e65" stroke-width="1.5"></path><path d="M192.67 518.08L93.86 367.68" stroke="#132e65" stroke-width="1.5"></path><path d="M192.67 518.08L381.66 532.29" stroke="#132e65" stroke-width="1.5"></path><path d="M233.31 707.11L233.31 707.11" stroke="#132e65" stroke-width="1.5"></path><path d="M233.31 707.11L347.26 649.04" stroke="#132e65" stroke-width="1.5"></path><path d="M233.31 707.11L68.33 641.05" stroke="#132e65" stroke-width="1.5"></path><path d="M233.31 707.11L192.67 518.08" stroke="#132e65" stroke-width="1.5"></path><path d="M233.31 707.11L381.66 532.29" stroke="#132e65" stroke-width="1.5"></path><path d="M233.31 707.11L100.81 496.03" stroke="#132e65" stroke-width="1.5"></path><path d="M350.26 368.78L350.26 368.78" stroke="#132e65" stroke-width="1.5"></path><path d="M350.26 368.78L381.66 532.29" stroke="#132e65" stroke-width="1.5"></path><path d="M350.26 368.78L192.67 518.08" stroke="#132e65" stroke-width="1.5"></path><path d="M350.26 368.78L531.92 531.53" stroke="#132e65" stroke-width="1.5"></path><path d="M350.26 368.78L93.86 367.68" stroke="#132e65" stroke-width="1.5"></path><path d="M381.66 532.29L381.66 532.29" stroke="#132e65" stroke-width="1.5"></path><path d="M381.66 532.29L347.26 649.04" stroke="#132e65" stroke-width="1.5"></path><path d="M381.66 532.29L531.92 531.53" stroke="#132e65" stroke-width="1.5"></path><path d="M347.26 649.04L347.26 649.04" stroke="#132e65" stroke-width="1.5"></path><path d="M347.26 649.04L192.67 518.08" stroke="#132e65" stroke-width="1.5"></path><path d="M347.26 649.04L549.27 665.83" stroke="#132e65" stroke-width="1.5"></path><path d="M531.92 531.53L531.92 531.53" stroke="#132e65" stroke-width="1.5"></path><path d="M531.92 531.53L661.57 541.64" stroke="#132e65" stroke-width="1.5"></path><path d="M531.92 531.53L549.27 665.83" stroke="#132e65" stroke-width="1.5"></path><path d="M531.92 531.53L647.05 401.47" stroke="#132e65" stroke-width="1.5"></path><path d="M531.92 531.53L639.76 696.65" stroke="#132e65" stroke-width="1.5"></path><path d="M549.27 665.83L549.27 665.83" stroke="#132e65" stroke-width="1.5"></path><path d="M549.27 665.83L639.76 696.65" stroke="#132e65" stroke-width="1.5"></path><path d="M549.27 665.83L661.57 541.64" stroke="#132e65" stroke-width="1.5"></path><path d="M687.01 245.05L687.01 245.05" stroke="#132e65" stroke-width="1.5"></path><path d="M687.01 245.05L647.05 401.47" stroke="#132e65" stroke-width="1.5"></path><path d="M687.01 245.05L860.34 227.51" stroke="#132e65" stroke-width="1.5"></path><path d="M687.01 245.05L831.61 110.33" stroke="#132e65" stroke-width="1.5"></path><path d="M687.01 245.05L975.69 244.8" stroke="#132e65" stroke-width="1.5"></path><path d="M647.05 401.47L647.05 401.47" stroke="#132e65" stroke-width="1.5"></path><path d="M647.05 401.47L661.57 541.64" stroke="#132e65" stroke-width="1.5"></path><path d="M661.57 541.64L661.57 541.64" stroke="#132e65" stroke-width="1.5"></path><path d="M661.57 541.64L639.76 696.65" stroke="#132e65" stroke-width="1.5"></path><path d="M639.76 696.65L639.76 696.65" stroke="#132e65" stroke-width="1.5"></path><path d="M831.61 110.33L831.61 110.33" stroke="#132e65" stroke-width="1.5"></path><path d="M831.61 110.33L860.34 227.51" stroke="#132e65" stroke-width="1.5"></path><path d="M831.61 110.33L958 90.9" stroke="#132e65" stroke-width="1.5"></path><path d="M860.34 227.51L860.34 227.51" stroke="#132e65" stroke-width="1.5"></path><path d="M860.34 227.51L975.69 244.8" stroke="#132e65" stroke-width="1.5"></path><path d="M860.34 227.51L958 90.9" stroke="#132e65" stroke-width="1.5"></path><path d="M860.34 227.51L939.64 399.12" stroke="#132e65" stroke-width="1.5"></path><path d="M860.34 227.51L647.05 401.47" stroke="#132e65" stroke-width="1.5"></path><path d="M860.2 556.74L860.2 556.74" stroke="#132e65" stroke-width="1.5"></path><path d="M860.2 556.74L993.76 514.12" stroke="#132e65" stroke-width="1.5"></path><path d="M860.2 556.74L939.64 399.12" stroke="#132e65" stroke-width="1.5"></path><path d="M860.2 556.74L973.49 712.29" stroke="#132e65" stroke-width="1.5"></path><path d="M860.2 556.74L661.57 541.64" stroke="#132e65" stroke-width="1.5"></path><path d="M860.2 556.74L1116.32 540.05" stroke="#132e65" stroke-width="1.5"></path><path d="M860.2 556.74L639.76 696.65" stroke="#132e65" stroke-width="1.5"></path><path d="M955.36 -55.78L955.36 -55.78" stroke="#132e65" stroke-width="1.5"></path><path d="M955.36 -55.78L958 90.9" stroke="#132e65" stroke-width="1.5"></path><path d="M955.36 -55.78L1138.48 -59.43" stroke="#132e65" stroke-width="1.5"></path><path d="M955.36 -55.78L831.61 110.33" stroke="#132e65" stroke-width="1.5"></path><path d="M958 90.9L958 90.9" stroke="#132e65" stroke-width="1.5"></path><path d="M958 90.9L975.69 244.8" stroke="#132e65" stroke-width="1.5"></path><path d="M975.69 244.8L975.69 244.8" stroke="#132e65" stroke-width="1.5"></path><path d="M975.69 244.8L939.64 399.12" stroke="#132e65" stroke-width="1.5"></path><path d="M975.69 244.8L1150.57 189.11" stroke="#132e65" stroke-width="1.5"></path><path d="M939.64 399.12L939.64 399.12" stroke="#132e65" stroke-width="1.5"></path><path d="M939.64 399.12L993.76 514.12" stroke="#132e65" stroke-width="1.5"></path><path d="M939.64 399.12L1121.19 388.65" stroke="#132e65" stroke-width="1.5"></path><path d="M993.76 514.12L993.76 514.12" stroke="#132e65" stroke-width="1.5"></path><path d="M993.76 514.12L1116.32 540.05" stroke="#132e65" stroke-width="1.5"></path><path d="M973.49 712.29L973.49 712.29" stroke="#132e65" stroke-width="1.5"></path><path d="M973.49 712.29L993.76 514.12" stroke="#132e65" stroke-width="1.5"></path><path d="M973.49 712.29L1116.32 540.05" stroke="#132e65" stroke-width="1.5"></path><path d="M973.49 712.29L939.64 399.12" stroke="#132e65" stroke-width="1.5"></path><path d="M973.49 712.29L1294.88 651.14" stroke="#132e65" stroke-width="1.5"></path><path d="M973.49 712.29L639.76 696.65" stroke="#132e65" stroke-width="1.5"></path><path d="M1138.48 -59.43L1138.48 -59.43" stroke="#132e65" stroke-width="1.5"></path><path d="M1138.48 -59.43L1290.36 -83.44" stroke="#132e65" stroke-width="1.5"></path><path d="M1146.24 110.2L1146.24 110.2" stroke="#132e65" stroke-width="1.5"></path><path d="M1146.24 110.2L1150.57 189.11" stroke="#132e65" stroke-width="1.5"></path><path d="M1150.57 189.11L1150.57 189.11" stroke="#132e65" stroke-width="1.5"></path><path d="M1150.57 189.11L1242.61 219.11" stroke="#132e65" stroke-width="1.5"></path><path d="M1150.57 189.11L1280.83 77.18" stroke="#132e65" stroke-width="1.5"></path><path d="M1121.19 388.65L1121.19 388.65" stroke="#132e65" stroke-width="1.5"></path><path d="M1121.19 388.65L1239.15 406.51" stroke="#132e65" stroke-width="1.5"></path><path d="M1116.32 540.05L1116.32 540.05" stroke="#132e65" stroke-width="1.5"></path><path d="M1290.36 -83.44L1290.36 -83.44" stroke="#132e65" stroke-width="1.5"></path><path d="M1290.36 -83.44L1400.51 -76.54" stroke="#132e65" stroke-width="1.5"></path><path d="M1290.36 -83.44L1280.83 77.18" stroke="#132e65" stroke-width="1.5"></path><path d="M1280.83 77.18L1280.83 77.18" stroke="#132e65" stroke-width="1.5"></path><path d="M1280.83 77.18L1400.04 98.04" stroke="#132e65" stroke-width="1.5"></path><path d="M1280.83 77.18L1146.24 110.2" stroke="#132e65" stroke-width="1.5"></path><path d="M1280.83 77.18L1242.61 219.11" stroke="#132e65" stroke-width="1.5"></path><path d="M1280.83 77.18L1400.51 -76.54" stroke="#132e65" stroke-width="1.5"></path><path d="M1242.61 219.11L1242.61 219.11" stroke="#132e65" stroke-width="1.5"></path><path d="M1242.61 219.11L1146.24 110.2" stroke="#132e65" stroke-width="1.5"></path><path d="M1242.61 219.11L1239.15 406.51" stroke="#132e65" stroke-width="1.5"></path><path d="M1242.61 219.11L1400.04 98.04" stroke="#132e65" stroke-width="1.5"></path><path d="M1242.61 219.11L1121.19 388.65" stroke="#132e65" stroke-width="1.5"></path><path d="M1239.15 406.51L1239.15 406.51" stroke="#132e65" stroke-width="1.5"></path><path d="M1239.15 406.51L1288.41 538.03" stroke="#132e65" stroke-width="1.5"></path><path d="M1239.15 406.51L1116.32 540.05" stroke="#132e65" stroke-width="1.5"></path><path d="M1288.41 538.03L1288.41 538.03" stroke="#132e65" stroke-width="1.5"></path><path d="M1288.41 538.03L1399.25 552.41" stroke="#132e65" stroke-width="1.5"></path><path d="M1288.41 538.03L1294.88 651.14" stroke="#132e65" stroke-width="1.5"></path><path d="M1294.88 651.14L1294.88 651.14" stroke="#132e65" stroke-width="1.5"></path><path d="M1294.88 651.14L1399.25 552.41" stroke="#132e65" stroke-width="1.5"></path><path d="M1294.88 651.14L1459.98 666.79" stroke="#132e65" stroke-width="1.5"></path><path d="M1294.88 651.14L1116.32 540.05" stroke="#132e65" stroke-width="1.5"></path><path d="M1400.51 -76.54L1400.51 -76.54" stroke="#132e65" stroke-width="1.5"></path><path d="M1400.51 -76.54L1540.25 -111.56" stroke="#132e65" stroke-width="1.5"></path><path d="M1400.51 -76.54L1400.04 98.04" stroke="#132e65" stroke-width="1.5"></path><path d="M1400.51 -76.54L1600.51 51.23" stroke="#132e65" stroke-width="1.5"></path><path d="M1400.04 98.04L1400.04 98.04" stroke="#132e65" stroke-width="1.5"></path><path d="M1448.33 362L1448.33 362" stroke="#132e65" stroke-width="1.5"></path><path d="M1448.33 362L1596.1 346.4" stroke="#132e65" stroke-width="1.5"></path><path d="M1448.33 362L1399.25 552.41" stroke="#132e65" stroke-width="1.5"></path><path d="M1448.33 362L1239.15 406.51" stroke="#132e65" stroke-width="1.5"></path><path d="M1448.33 362L1288.41 538.03" stroke="#132e65" stroke-width="1.5"></path><path d="M1448.33 362L1242.61 219.11" stroke="#132e65" stroke-width="1.5"></path><path d="M1448.33 362L1400.04 98.04" stroke="#132e65" stroke-width="1.5"></path><path d="M1399.25 552.41L1399.25 552.41" stroke="#132e65" stroke-width="1.5"></path><path d="M1399.25 552.41L1459.98 666.79" stroke="#132e65" stroke-width="1.5"></path><path d="M1459.98 666.79L1459.98 666.79" stroke="#132e65" stroke-width="1.5"></path><path d="M1459.98 666.79L1545.22 669.22" stroke="#132e65" stroke-width="1.5"></path><path d="M1459.98 666.79L1288.41 538.03" stroke="#132e65" stroke-width="1.5"></path><path d="M1459.98 666.79L1448.33 362" stroke="#132e65" stroke-width="1.5"></path><path d="M1540.25 -111.56L1540.25 -111.56" stroke="#132e65" stroke-width="1.5"></path><path d="M1540.25 -111.56L1600.51 51.23" stroke="#132e65" stroke-width="1.5"></path><path d="M1540.25 -111.56L1290.36 -83.44" stroke="#132e65" stroke-width="1.5"></path><path d="M1540.25 -111.56L1400.04 98.04" stroke="#132e65" stroke-width="1.5"></path><path d="M1540.25 -111.56L1280.83 77.18" stroke="#132e65" stroke-width="1.5"></path><path d="M1540.25 -111.56L1138.48 -59.43" stroke="#132e65" stroke-width="1.5"></path><path d="M1600.51 51.23L1600.51 51.23" stroke="#132e65" stroke-width="1.5"></path><path d="M1600.51 51.23L1400.04 98.04" stroke="#132e65" stroke-width="1.5"></path><path d="M1600.51 51.23L1596.1 346.4" stroke="#132e65" stroke-width="1.5"></path><path d="M1600.51 51.23L1280.83 77.18" stroke="#132e65" stroke-width="1.5"></path><path d="M1596.1 346.4L1596.1 346.4" stroke="#132e65" stroke-width="1.5"></path><path d="M1596.1 346.4L1399.25 552.41" stroke="#132e65" stroke-width="1.5"></path><path d="M1545.22 669.22L1545.22 669.22" stroke="#132e65" stroke-width="1.5"></path><path d="M1545.22 669.22L1399.25 552.41" stroke="#132e65" stroke-width="1.5"></path><path d="M1545.22 669.22L1294.88 651.14" stroke="#132e65" stroke-width="1.5"></path><circle r="5" cx="-41.95" cy="382.18" fill="#132e65"></circle><circle r="5" cx="-42.45" cy="547.89" fill="#132e65"></circle><circle r="5" cx="-54.73" cy="704.15" fill="#132e65"></circle><circle r="5" cx="93.86" cy="367.68" fill="#132e65"></circle><circle r="5" cx="100.81" cy="496.03" fill="#132e65"></circle><circle r="5" cx="68.33" cy="641.05" fill="#132e65"></circle><circle r="5" cx="231.35" cy="342.95" fill="#132e65"></circle><circle r="5" cx="192.67" cy="518.08" fill="#132e65"></circle><circle r="5" cx="233.31" cy="707.11" fill="#132e65"></circle><circle r="5" cx="350.26" cy="368.78" fill="#132e65"></circle><circle r="5" cx="381.66" cy="532.29" fill="#132e65"></circle><circle r="5" cx="347.26" cy="649.04" fill="#132e65"></circle><circle r="5" cx="531.92" cy="531.53" fill="#132e65"></circle><circle r="5" cx="549.27" cy="665.83" fill="#132e65"></circle><circle r="5" cx="687.01" cy="245.05" fill="#132e65"></circle><circle r="5" cx="647.05" cy="401.47" fill="#132e65"></circle><circle r="5" cx="661.57" cy="541.64" fill="#132e65"></circle><circle r="5" cx="639.76" cy="696.65" fill="#132e65"></circle><circle r="5" cx="831.61" cy="110.33" fill="#132e65"></circle><circle r="5" cx="860.34" cy="227.51" fill="#132e65"></circle><circle r="5" cx="860.2" cy="556.74" fill="#132e65"></circle><circle r="5" cx="955.36" cy="-55.78" fill="#132e65"></circle><circle r="5" cx="958" cy="90.9" fill="#132e65"></circle><circle r="5" cx="975.69" cy="244.8" fill="#132e65"></circle><circle r="5" cx="939.64" cy="399.12" fill="#132e65"></circle><circle r="5" cx="993.76" cy="514.12" fill="#132e65"></circle><circle r="5" cx="973.49" cy="712.29" fill="#132e65"></circle><circle r="5" cx="1138.48" cy="-59.43" fill="#132e65"></circle><circle r="5" cx="1146.24" cy="110.2" fill="#132e65"></circle><circle r="5" cx="1150.57" cy="189.11" fill="#132e65"></circle><circle r="5" cx="1121.19" cy="388.65" fill="#132e65"></circle><circle r="5" cx="1116.32" cy="540.05" fill="#132e65"></circle><circle r="5" cx="1290.36" cy="-83.44" fill="#132e65"></circle><circle r="5" cx="1280.83" cy="77.18" fill="#132e65"></circle><circle r="5" cx="1242.61" cy="219.11" fill="#132e65"></circle><circle r="5" cx="1239.15" cy="406.51" fill="#132e65"></circle><circle r="5" cx="1288.41" cy="538.03" fill="#132e65"></circle><circle r="5" cx="1294.88" cy="651.14" fill="#132e65"></circle><circle r="5" cx="1400.51" cy="-76.54" fill="#132e65"></circle><circle r="5" cx="1400.04" cy="98.04" fill="#132e65"></circle><circle r="5" cx="1448.33" cy="362" fill="#132e65"></circle><circle r="5" cx="1399.25" cy="552.41" fill="#132e65"></circle><circle r="5" cx="1459.98" cy="666.79" fill="#132e65"></circle><circle r="5" cx="1540.25" cy="-111.56" fill="#132e65"></circle><circle r="5" cx="1600.51" cy="51.23" fill="#132e65"></circle><circle r="5" cx="1596.1" cy="346.4" fill="#132e65"></circle><circle r="5" cx="1545.22" cy="669.22" fill="#132e65"></circle><path d="M104.1 490.22L104.1 490.22" stroke="hsl(220.20000000000005, 68.3%, 30.6%)" stroke-width="1.5"></path><path d="M104.1 490.22L228.04 542.95" stroke="hsl(220.20000000000005, 68.3%, 30.6%)" stroke-width="1.5"></path><path d="M104.1 490.22L41.12 639.15" stroke="hsl(220.20000000000005, 68.3%, 30.6%)" stroke-width="1.5"></path><path d="M104.1 490.22L-59.26 525.61" stroke="hsl(220.20000000000005, 68.3%, 30.6%)" stroke-width="1.5"></path><path d="M104.1 490.22L214.73 655.14" stroke="hsl(220.20000000000005, 68.3%, 30.6%)" stroke-width="1.5"></path><path d="M41.12 639.15L41.12 639.15" stroke="hsl(220.20000000000005, 68.3%, 30.6%)" stroke-width="1.5"></path><path d="M41.12 639.15L-84.26 640.3" stroke="hsl(220.20000000000005, 68.3%, 30.6%)" stroke-width="1.5"></path><path d="M41.12 639.15L-59.26 525.61" stroke="hsl(220.20000000000005, 68.3%, 30.6%)" stroke-width="1.5"></path><path d="M228.04 542.95L228.04 542.95" stroke="hsl(220.20000000000005, 68.3%, 30.6%)" stroke-width="1.5"></path><path d="M228.04 542.95L214.73 655.14" stroke="hsl(220.20000000000005, 68.3%, 30.6%)" stroke-width="1.5"></path><path d="M228.04 542.95L404.02 518.28" stroke="hsl(220.20000000000005, 68.3%, 30.6%)" stroke-width="1.5"></path><path d="M228.04 542.95L41.12 639.15" stroke="hsl(220.20000000000005, 68.3%, 30.6%)" stroke-width="1.5"></path><path d="M228.04 542.95L-59.26 525.61" stroke="hsl(220.20000000000005, 68.3%, 30.6%)" stroke-width="1.5"></path><path d="M795.05 500.86L795.05 500.86" stroke="hsl(220.20000000000005, 68.3%, 30.6%)" stroke-width="1.5"></path><path d="M795.05 500.86L844.22 395.94" stroke="hsl(220.20000000000005, 68.3%, 30.6%)" stroke-width="1.5"></path><path d="M795.05 500.86L662.07 488.42" stroke="hsl(220.20000000000005, 68.3%, 30.6%)" stroke-width="1.5"></path><path d="M795.05 500.86L804.14 658.26" stroke="hsl(220.20000000000005, 68.3%, 30.6%)" stroke-width="1.5"></path><path d="M795.05 500.86L652.68 388.24" stroke="hsl(220.20000000000005, 68.3%, 30.6%)" stroke-width="1.5"></path><path d="M795.05 500.86L982.37 509.9" stroke="hsl(220.20000000000005, 68.3%, 30.6%)" stroke-width="1.5"></path><path d="M795.05 500.86L665.94 646.77" stroke="hsl(220.20000000000005, 68.3%, 30.6%)" stroke-width="1.5"></path><path d="M944.85 338.86L944.85 338.86" stroke="hsl(220.20000000000005, 68.3%, 30.6%)" stroke-width="1.5"></path><path d="M944.85 338.86L997.64 255.93" stroke="hsl(220.20000000000005, 68.3%, 30.6%)" stroke-width="1.5"></path><path d="M944.85 338.86L844.22 395.94" stroke="hsl(220.20000000000005, 68.3%, 30.6%)" stroke-width="1.5"></path><path d="M944.85 338.86L1118.14 355.08" stroke="hsl(220.20000000000005, 68.3%, 30.6%)" stroke-width="1.5"></path><path d="M1003.08 692.6L1003.08 692.6" stroke="hsl(220.20000000000005, 68.3%, 30.6%)" stroke-width="1.5"></path><path d="M1003.08 692.6L1160.61 678.92" stroke="hsl(220.20000000000005, 68.3%, 30.6%)" stroke-width="1.5"></path><path d="M1003.08 692.6L982.37 509.9" stroke="hsl(220.20000000000005, 68.3%, 30.6%)" stroke-width="1.5"></path><path d="M1003.08 692.6L1147.08 558.68" stroke="hsl(220.20000000000005, 68.3%, 30.6%)" stroke-width="1.5"></path><path d="M1264.03 61.97L1264.03 61.97" stroke="hsl(220.20000000000005, 68.3%, 30.6%)" stroke-width="1.5"></path><path d="M1264.03 61.97L1292.1 -44.87" stroke="hsl(220.20000000000005, 68.3%, 30.6%)" stroke-width="1.5"></path><path d="M1264.03 61.97L1266.99 247.23" stroke="hsl(220.20000000000005, 68.3%, 30.6%)" stroke-width="1.5"></path><path d="M1264.03 61.97L1404.04 193.2" stroke="hsl(220.20000000000005, 68.3%, 30.6%)" stroke-width="1.5"></path><path d="M1243.53 492.71L1243.53 492.71" stroke="hsl(220.20000000000005, 68.3%, 30.6%)" stroke-width="1.5"></path><path d="M1243.53 492.71L1290.37 409.53" stroke="hsl(220.20000000000005, 68.3%, 30.6%)" stroke-width="1.5"></path><path d="M1243.53 492.71L1147.08 558.68" stroke="hsl(220.20000000000005, 68.3%, 30.6%)" stroke-width="1.5"></path><path d="M1243.53 492.71L1118.14 355.08" stroke="hsl(220.20000000000005, 68.3%, 30.6%)" stroke-width="1.5"></path><path d="M1243.53 492.71L1296.82 675.16" stroke="hsl(220.20000000000005, 68.3%, 30.6%)" stroke-width="1.5"></path><path d="M1243.53 492.71L1428.93 555.02" stroke="hsl(220.20000000000005, 68.3%, 30.6%)" stroke-width="1.5"></path><path d="M1587.8 639.6L1587.8 639.6" stroke="hsl(220.20000000000005, 68.3%, 30.6%)" stroke-width="1.5"></path><path d="M1587.8 639.6L1545.8 535.95" stroke="hsl(220.20000000000005, 68.3%, 30.6%)" stroke-width="1.5"></path><path d="M1587.8 639.6L1430.99 696.9" stroke="hsl(220.20000000000005, 68.3%, 30.6%)" stroke-width="1.5"></path><path d="M1587.8 639.6L1428.93 555.02" stroke="hsl(220.20000000000005, 68.3%, 30.6%)" stroke-width="1.5"></path><path d="M1587.8 639.6L1590.81 389.93" stroke="hsl(220.20000000000005, 68.3%, 30.6%)" stroke-width="1.5"></path><path d="M-59.26 525.61L-59.26 525.61" stroke="hsl(220.20000000000005, 68.3%, 30.6%)" stroke-width="1.5"></path><path d="M-59.26 525.61L-84.26 640.3" stroke="hsl(220.20000000000005, 68.3%, 30.6%)" stroke-width="1.5"></path><path d="M-84.26 640.3L-84.26 640.3" stroke="hsl(220.20000000000005, 68.3%, 30.6%)" stroke-width="1.5"></path><path d="M-84.26 640.3L104.1 490.22" stroke="hsl(220.20000000000005, 68.3%, 30.6%)" stroke-width="1.5"></path><path d="M-84.26 640.3L214.73 655.14" stroke="hsl(220.20000000000005, 68.3%, 30.6%)" stroke-width="1.5"></path><path d="M214.73 655.14L214.73 655.14" stroke="hsl(220.20000000000005, 68.3%, 30.6%)" stroke-width="1.5"></path><path d="M214.73 655.14L41.12 639.15" stroke="hsl(220.20000000000005, 68.3%, 30.6%)" stroke-width="1.5"></path><path d="M214.73 655.14L404.02 518.28" stroke="hsl(220.20000000000005, 68.3%, 30.6%)" stroke-width="1.5"></path><path d="M404.02 518.28L404.02 518.28" stroke="hsl(220.20000000000005, 68.3%, 30.6%)" stroke-width="1.5"></path><path d="M404.02 518.28L662.07 488.42" stroke="hsl(220.20000000000005, 68.3%, 30.6%)" stroke-width="1.5"></path><path d="M404.02 518.28L652.68 388.24" stroke="hsl(220.20000000000005, 68.3%, 30.6%)" stroke-width="1.5"></path><path d="M404.02 518.28L665.94 646.77" stroke="hsl(220.20000000000005, 68.3%, 30.6%)" stroke-width="1.5"></path><path d="M404.02 518.28L104.1 490.22" stroke="hsl(220.20000000000005, 68.3%, 30.6%)" stroke-width="1.5"></path><path d="M652.68 388.24L652.68 388.24" stroke="hsl(220.20000000000005, 68.3%, 30.6%)" stroke-width="1.5"></path><path d="M652.68 388.24L662.07 488.42" stroke="hsl(220.20000000000005, 68.3%, 30.6%)" stroke-width="1.5"></path><path d="M652.68 388.24L844.22 395.94" stroke="hsl(220.20000000000005, 68.3%, 30.6%)" stroke-width="1.5"></path><path d="M652.68 388.24L665.94 646.77" stroke="hsl(220.20000000000005, 68.3%, 30.6%)" stroke-width="1.5"></path><path d="M662.07 488.42L662.07 488.42" stroke="hsl(220.20000000000005, 68.3%, 30.6%)" stroke-width="1.5"></path><path d="M662.07 488.42L665.94 646.77" stroke="hsl(220.20000000000005, 68.3%, 30.6%)" stroke-width="1.5"></path><path d="M662.07 488.42L844.22 395.94" stroke="hsl(220.20000000000005, 68.3%, 30.6%)" stroke-width="1.5"></path><path d="M662.07 488.42L804.14 658.26" stroke="hsl(220.20000000000005, 68.3%, 30.6%)" stroke-width="1.5"></path><path d="M665.94 646.77L665.94 646.77" stroke="hsl(220.20000000000005, 68.3%, 30.6%)" stroke-width="1.5"></path><path d="M665.94 646.77L804.14 658.26" stroke="hsl(220.20000000000005, 68.3%, 30.6%)" stroke-width="1.5"></path><path d="M844.22 395.94L844.22 395.94" stroke="hsl(220.20000000000005, 68.3%, 30.6%)" stroke-width="1.5"></path><path d="M844.22 395.94L982.37 509.9" stroke="hsl(220.20000000000005, 68.3%, 30.6%)" stroke-width="1.5"></path><path d="M804.14 658.26L804.14 658.26" stroke="hsl(220.20000000000005, 68.3%, 30.6%)" stroke-width="1.5"></path><path d="M804.14 658.26L1003.08 692.6" stroke="hsl(220.20000000000005, 68.3%, 30.6%)" stroke-width="1.5"></path><path d="M997.64 255.93L997.64 255.93" stroke="hsl(220.20000000000005, 68.3%, 30.6%)" stroke-width="1.5"></path><path d="M982.37 509.9L982.37 509.9" stroke="hsl(220.20000000000005, 68.3%, 30.6%)" stroke-width="1.5"></path><path d="M982.37 509.9L1147.08 558.68" stroke="hsl(220.20000000000005, 68.3%, 30.6%)" stroke-width="1.5"></path><path d="M982.37 509.9L944.85 338.86" stroke="hsl(220.20000000000005, 68.3%, 30.6%)" stroke-width="1.5"></path><path d="M982.37 509.9L1118.14 355.08" stroke="hsl(220.20000000000005, 68.3%, 30.6%)" stroke-width="1.5"></path><path d="M1112.99 253.33L1112.99 253.33" stroke="hsl(220.20000000000005, 68.3%, 30.6%)" stroke-width="1.5"></path><path d="M1112.99 253.33L1118.14 355.08" stroke="hsl(220.20000000000005, 68.3%, 30.6%)" stroke-width="1.5"></path><path d="M1112.99 253.33L997.64 255.93" stroke="hsl(220.20000000000005, 68.3%, 30.6%)" stroke-width="1.5"></path><path d="M1112.99 253.33L1266.99 247.23" stroke="hsl(220.20000000000005, 68.3%, 30.6%)" stroke-width="1.5"></path><path d="M1112.99 253.33L944.85 338.86" stroke="hsl(220.20000000000005, 68.3%, 30.6%)" stroke-width="1.5"></path><path d="M1118.14 355.08L1118.14 355.08" stroke="hsl(220.20000000000005, 68.3%, 30.6%)" stroke-width="1.5"></path><path d="M1118.14 355.08L997.64 255.93" stroke="hsl(220.20000000000005, 68.3%, 30.6%)" stroke-width="1.5"></path><path d="M1147.08 558.68L1147.08 558.68" stroke="hsl(220.20000000000005, 68.3%, 30.6%)" stroke-width="1.5"></path><path d="M1160.61 678.92L1160.61 678.92" stroke="hsl(220.20000000000005, 68.3%, 30.6%)" stroke-width="1.5"></path><path d="M1160.61 678.92L1147.08 558.68" stroke="hsl(220.20000000000005, 68.3%, 30.6%)" stroke-width="1.5"></path><path d="M1160.61 678.92L1296.82 675.16" stroke="hsl(220.20000000000005, 68.3%, 30.6%)" stroke-width="1.5"></path><path d="M1292.1 -44.87L1292.1 -44.87" stroke="hsl(220.20000000000005, 68.3%, 30.6%)" stroke-width="1.5"></path><path d="M1292.1 -44.87L1412.79 -88.26" stroke="hsl(220.20000000000005, 68.3%, 30.6%)" stroke-width="1.5"></path><path d="M1292.1 -44.87L1459 87.39" stroke="hsl(220.20000000000005, 68.3%, 30.6%)" stroke-width="1.5"></path><path d="M1292.1 -44.87L1404.04 193.2" stroke="hsl(220.20000000000005, 68.3%, 30.6%)" stroke-width="1.5"></path><path d="M1266.99 247.23L1266.99 247.23" stroke="hsl(220.20000000000005, 68.3%, 30.6%)" stroke-width="1.5"></path><path d="M1266.99 247.23L1404.04 193.2" stroke="hsl(220.20000000000005, 68.3%, 30.6%)" stroke-width="1.5"></path><path d="M1266.99 247.23L1290.37 409.53" stroke="hsl(220.20000000000005, 68.3%, 30.6%)" stroke-width="1.5"></path><path d="M1266.99 247.23L1118.14 355.08" stroke="hsl(220.20000000000005, 68.3%, 30.6%)" stroke-width="1.5"></path><path d="M1290.37 409.53L1290.37 409.53" stroke="hsl(220.20000000000005, 68.3%, 30.6%)" stroke-width="1.5"></path><path d="M1296.82 675.16L1296.82 675.16" stroke="hsl(220.20000000000005, 68.3%, 30.6%)" stroke-width="1.5"></path><path d="M1296.82 675.16L1430.99 696.9" stroke="hsl(220.20000000000005, 68.3%, 30.6%)" stroke-width="1.5"></path><path d="M1296.82 675.16L1428.93 555.02" stroke="hsl(220.20000000000005, 68.3%, 30.6%)" stroke-width="1.5"></path><path d="M1296.82 675.16L1147.08 558.68" stroke="hsl(220.20000000000005, 68.3%, 30.6%)" stroke-width="1.5"></path><path d="M1412.79 -88.26L1412.79 -88.26" stroke="hsl(220.20000000000005, 68.3%, 30.6%)" stroke-width="1.5"></path><path d="M1412.79 -88.26L1459 87.39" stroke="hsl(220.20000000000005, 68.3%, 30.6%)" stroke-width="1.5"></path><path d="M1412.79 -88.26L1593.71 -49.54" stroke="hsl(220.20000000000005, 68.3%, 30.6%)" stroke-width="1.5"></path><path d="M1459 87.39L1459 87.39" stroke="hsl(220.20000000000005, 68.3%, 30.6%)" stroke-width="1.5"></path><path d="M1459 87.39L1541.21 94.62" stroke="hsl(220.20000000000005, 68.3%, 30.6%)" stroke-width="1.5"></path><path d="M1459 87.39L1404.04 193.2" stroke="hsl(220.20000000000005, 68.3%, 30.6%)" stroke-width="1.5"></path><path d="M1459 87.39L1593.71 -49.54" stroke="hsl(220.20000000000005, 68.3%, 30.6%)" stroke-width="1.5"></path><path d="M1459 87.39L1264.03 61.97" stroke="hsl(220.20000000000005, 68.3%, 30.6%)" stroke-width="1.5"></path><path d="M1404.04 193.2L1404.04 193.2" stroke="hsl(220.20000000000005, 68.3%, 30.6%)" stroke-width="1.5"></path><path d="M1445.22 352.96L1445.22 352.96" stroke="hsl(220.20000000000005, 68.3%, 30.6%)" stroke-width="1.5"></path><path d="M1445.22 352.96L1590.81 389.93" stroke="hsl(220.20000000000005, 68.3%, 30.6%)" stroke-width="1.5"></path><path d="M1445.22 352.96L1574.11 256.6" stroke="hsl(220.20000000000005, 68.3%, 30.6%)" stroke-width="1.5"></path><path d="M1445.22 352.96L1290.37 409.53" stroke="hsl(220.20000000000005, 68.3%, 30.6%)" stroke-width="1.5"></path><path d="M1445.22 352.96L1404.04 193.2" stroke="hsl(220.20000000000005, 68.3%, 30.6%)" stroke-width="1.5"></path><path d="M1445.22 352.96L1428.93 555.02" stroke="hsl(220.20000000000005, 68.3%, 30.6%)" stroke-width="1.5"></path><path d="M1445.22 352.96L1266.99 247.23" stroke="hsl(220.20000000000005, 68.3%, 30.6%)" stroke-width="1.5"></path><path d="M1428.93 555.02L1428.93 555.02" stroke="hsl(220.20000000000005, 68.3%, 30.6%)" stroke-width="1.5"></path><path d="M1428.93 555.02L1545.8 535.95" stroke="hsl(220.20000000000005, 68.3%, 30.6%)" stroke-width="1.5"></path><path d="M1428.93 555.02L1430.99 696.9" stroke="hsl(220.20000000000005, 68.3%, 30.6%)" stroke-width="1.5"></path><path d="M1430.99 696.9L1430.99 696.9" stroke="hsl(220.20000000000005, 68.3%, 30.6%)" stroke-width="1.5"></path><path d="M1593.71 -49.54L1593.71 -49.54" stroke="hsl(220.20000000000005, 68.3%, 30.6%)" stroke-width="1.5"></path><path d="M1593.71 -49.54L1541.21 94.62" stroke="hsl(220.20000000000005, 68.3%, 30.6%)" stroke-width="1.5"></path><path d="M1593.71 -49.54L1292.1 -44.87" stroke="hsl(220.20000000000005, 68.3%, 30.6%)" stroke-width="1.5"></path><path d="M1541.21 94.62L1541.21 94.62" stroke="hsl(220.20000000000005, 68.3%, 30.6%)" stroke-width="1.5"></path><path d="M1541.21 94.62L1574.11 256.6" stroke="hsl(220.20000000000005, 68.3%, 30.6%)" stroke-width="1.5"></path><path d="M1541.21 94.62L1404.04 193.2" stroke="hsl(220.20000000000005, 68.3%, 30.6%)" stroke-width="1.5"></path><path d="M1541.21 94.62L1412.79 -88.26" stroke="hsl(220.20000000000005, 68.3%, 30.6%)" stroke-width="1.5"></path><path d="M1574.11 256.6L1574.11 256.6" stroke="hsl(220.20000000000005, 68.3%, 30.6%)" stroke-width="1.5"></path><path d="M1574.11 256.6L1590.81 389.93" stroke="hsl(220.20000000000005, 68.3%, 30.6%)" stroke-width="1.5"></path><path d="M1590.81 389.93L1590.81 389.93" stroke="hsl(220.20000000000005, 68.3%, 30.6%)" stroke-width="1.5"></path><path d="M1590.81 389.93L1545.8 535.95" stroke="hsl(220.20000000000005, 68.3%, 30.6%)" stroke-width="1.5"></path><path d="M1545.8 535.95L1545.8 535.95" stroke="hsl(220.20000000000005, 68.3%, 30.6%)" stroke-width="1.5"></path><path d="M1545.8 535.95L1430.99 696.9" stroke="hsl(220.20000000000005, 68.3%, 30.6%)" stroke-width="1.5"></path><path d="M1545.8 535.95L1445.22 352.96" stroke="hsl(220.20000000000005, 68.3%, 30.6%)" stroke-width="1.5"></path><path d="M1545.8 535.95L1574.11 256.6" stroke="hsl(220.20000000000005, 68.3%, 30.6%)" stroke-width="1.5"></path><circle r="25" cx="104.1" cy="490.22" fill="url(&quot;#SvgjsRadialGradient1007&quot;)"></circle><circle r="25" cx="41.12" cy="639.15" fill="url(&quot;#SvgjsRadialGradient1007&quot;)"></circle><circle r="25" cx="228.04" cy="542.95" fill="url(&quot;#SvgjsRadialGradient1007&quot;)"></circle><circle r="25" cx="795.05" cy="500.86" fill="url(&quot;#SvgjsRadialGradient1007&quot;)"></circle><circle r="25" cx="944.85" cy="338.86" fill="url(&quot;#SvgjsRadialGradient1007&quot;)"></circle><circle r="25" cx="1003.08" cy="692.6" fill="url(&quot;#SvgjsRadialGradient1007&quot;)"></circle><circle r="25" cx="1264.03" cy="61.97" fill="url(&quot;#SvgjsRadialGradient1007&quot;)"></circle><circle r="25" cx="1243.53" cy="492.71" fill="url(&quot;#SvgjsRadialGradient1007&quot;)"></circle><circle r="25" cx="1587.8" cy="639.6" fill="url(&quot;#SvgjsRadialGradient1007&quot;)"></circle><circle r="5" cx="-59.26" cy="525.61" fill="#8997b2"></circle><circle r="5" cx="-84.26" cy="640.3" fill="#8997b2"></circle><circle r="5" cx="214.73" cy="655.14" fill="#8997b2"></circle><circle r="5" cx="404.02" cy="518.28" fill="#8997b2"></circle><circle r="5" cx="652.68" cy="388.24" fill="#8997b2"></circle><circle r="5" cx="662.07" cy="488.42" fill="#8997b2"></circle><circle r="5" cx="665.94" cy="646.77" fill="#8997b2"></circle><circle r="5" cx="844.22" cy="395.94" fill="#8997b2"></circle><circle r="5" cx="804.14" cy="658.26" fill="#8997b2"></circle><circle r="5" cx="997.64" cy="255.93" fill="#8997b2"></circle><circle r="5" cx="982.37" cy="509.9" fill="#8997b2"></circle><circle r="5" cx="1112.99" cy="253.33" fill="#8997b2"></circle><circle r="5" cx="1118.14" cy="355.08" fill="#8997b2"></circle><circle r="5" cx="1147.08" cy="558.68" fill="#8997b2"></circle><circle r="5" cx="1160.61" cy="678.92" fill="#8997b2"></circle><circle r="5" cx="1292.1" cy="-44.87" fill="#8997b2"></circle><circle r="5" cx="1266.99" cy="247.23" fill="#8997b2"></circle><circle r="5" cx="1290.37" cy="409.53" fill="#8997b2"></circle><circle r="5" cx="1296.82" cy="675.16" fill="#8997b2"></circle><circle r="5" cx="1412.79" cy="-88.26" fill="#8997b2"></circle><circle r="5" cx="1459" cy="87.39" fill="#8997b2"></circle><circle r="5" cx="1404.04" cy="193.2" fill="#8997b2"></circle><circle r="5" cx="1445.22" cy="352.96" fill="#8997b2"></circle><circle r="5" cx="1428.93" cy="555.02" fill="#8997b2"></circle><circle r="5" cx="1430.99" cy="696.9" fill="#8997b2"></circle><circle r="5" cx="1593.71" cy="-49.54" fill="#8997b2"></circle><circle r="5" cx="1541.21" cy="94.62" fill="#8997b2"></circle><circle r="5" cx="1574.11" cy="256.6" fill="#8997b2"></circle><circle r="5" cx="1590.81" cy="389.93" fill="#8997b2"></circle><circle r="5" cx="1545.8" cy="535.95" fill="#8997b2"></circle></g><defs><mask id="SvgjsMask1006"><rect width="1440" height="560" fill="#ffffff"></rect></mask><radialGradient id="SvgjsRadialGradient1007"><stop stop-color="#ffffff" offset="0.1"></stop><stop stop-color="rgba(19, 46, 101, 1)" offset="0.2"></stop><stop stop-color="rgba(19, 46, 101, 0)" offset="1"></stop></radialGradient></defs></svg>